<svg width="40" height="41" viewBox="0 0 40 41" fill="none" xmlns="http://www.w3.org/2000/svg">
<path d="M38.1941 0.145508H1.59142C0.711165 0.145508 0 0.860508 0 1.74551V38.5455C0 39.4305 0.711165 40.1455 1.59142 40.1455H38.1941C39.0743 40.1455 39.7855 39.4305 39.7855 38.5455V1.74551C39.7855 0.860508 39.0743 0.145508 38.1941 0.145508ZM33.5988 11.8205H30.421C27.9294 11.8205 27.447 13.0105 27.447 14.7605V18.6155H33.3949L32.6191 24.6505H27.447V40.1455H21.2454V24.6555H16.0584V18.6155H21.2454V14.1655C21.2454 9.00051 24.3835 6.18551 28.9688 6.18551C31.1669 6.18551 33.0518 6.35051 33.6038 6.42551V11.8205H33.5988Z" fill="#191F82"/>
</svg>
