<svg width="27" height="33" viewBox="0 0 27 33" fill="none" xmlns="http://www.w3.org/2000/svg">
<path fill-rule="evenodd" clip-rule="evenodd" d="M8.79912 2.0003C2.66717 6.35087 -1.56482 15.6465 0.552008 23.1839C1.39561 26.1875 3.15058 28.7938 6.00341 30.4528C13.6646 34.9078 23.9238 31.4522 26.3078 23.3678C28.5363 15.8107 24.2465 6.38481 18.2622 2.15573C15.1328 -0.0559999 11.9241 -0.216928 8.79912 2.0003ZM4.99342 16.6951V21.2989H6.39729C7.03698 21.2989 7.55715 21.0841 7.9614 20.6542C8.36386 20.2261 8.56612 19.6719 8.56612 18.9933C8.56612 18.3165 8.36386 17.7641 7.9614 17.3361C7.55715 16.9082 7.03698 16.6951 6.39729 16.6951H4.99342ZM3.1078 22.86V15.1341H5.9345C6.74288 15.1341 7.36976 15.1962 7.81449 15.3226C8.25922 15.4471 8.6691 15.6525 9.04185 15.9409C9.52347 16.3125 9.88737 16.7574 10.1355 17.2738C10.3836 17.7905 10.5067 18.3653 10.5067 18.9933C10.5067 19.6833 10.3561 20.3072 10.0548 20.8691C9.75326 21.4308 9.31596 21.8986 8.74621 22.2737C8.42279 22.4848 8.06619 22.6337 7.67461 22.7243C7.2833 22.8147 6.70253 22.86 5.9345 22.86H3.1078ZM11.29 22.86V15.1341H16.3289V16.5593H13.1755V18.1318H16.1856V19.5683H13.1755V21.4121H16.4173V22.86H11.29ZM20.4217 22.9277L17.0033 15.1341H19.0214L20.8831 19.6248L22.8696 15.1341H24.9097L21.2377 22.9277H20.4217Z" fill="#191F82"/>
</svg>
