<svg width="40" height="41" viewBox="0 0 40 41" fill="none" xmlns="http://www.w3.org/2000/svg">
<path d="M20.0003 0.145508C8.95586 0.145508 0 9.32604 0 20.6518C0 29.712 5.73062 37.3986 13.6772 40.1103C14.6766 40.3 15.0441 39.6653 15.0441 39.1237C15.0441 38.6349 15.0253 37.0193 15.0169 35.3058C9.4525 36.5465 8.27844 32.8863 8.27844 32.8863C7.36898 30.5162 6.05781 29.8858 6.05781 29.8858C4.24328 28.6131 6.19492 28.6393 6.19492 28.6393C8.20273 28.7839 9.26039 30.7526 9.26039 30.7526C11.0445 33.8875 13.9391 32.9811 15.0809 32.4571C15.2601 31.132 15.7782 30.2271 16.3506 29.7151C11.908 29.1967 7.23828 27.4381 7.23828 19.5807C7.23828 17.3419 8.01969 15.5126 9.29922 14.0765C9.09156 13.5599 8.40648 11.4743 9.49266 8.64957C9.49266 8.64957 11.1726 8.09878 14.9942 10.7519C16.5894 10.2974 18.3003 10.0696 20.0002 10.0616C21.6995 10.0696 23.4118 10.2974 25.0102 10.7519C28.828 8.0987 30.5046 8.64957 30.5046 8.64957C31.5934 11.4743 30.9089 13.5599 30.7013 14.0765C31.9834 15.5126 32.7597 17.342 32.7597 19.5807C32.7597 27.457 28.0809 29.1911 23.6273 29.6987C24.3446 30.3351 24.9837 31.583 24.9837 33.4961C24.9837 36.2399 24.9604 38.4482 24.9604 39.1236C24.9604 39.6695 25.3206 40.3089 26.3343 40.1075C34.2766 37.393 40 29.7091 40 20.6518C40 9.32604 31.0455 0.145508 20.0003 0.145508Z" fill="#191F82"/>
</svg>
