<svg width="125" height="17" viewBox="0 0 125 17" fill="none" xmlns="http://www.w3.org/2000/svg">
<path d="M0.881577 16.5259V1.225H4.52294V16.5259H0.881577ZM10.871 6.91131V16.5259H7.37481V1.225H10.4745L18.0502 10.3466V1.225H21.5469V16.5259H18.7779L10.871 6.91131ZM36.688 15.2417C35.8396 15.7682 34.9708 16.1562 34.0813 16.4139C33.1915 16.6677 32.2569 16.7949 31.2813 16.7949C30.1779 16.7949 29.1606 16.612 28.2365 16.2495C27.3087 15.884 26.4988 15.3463 25.8054 14.6405C25.0916 13.9047 24.5468 13.0422 24.1745 12.0604C23.7986 11.0747 23.6124 10.018 23.6124 8.88681C23.6124 6.50835 24.3435 4.59296 25.8088 3.13665C27.2744 1.68432 29.2089 0.956055 31.612 0.956055C32.4746 0.956055 33.3155 1.05685 34.1329 1.26219C34.9539 1.46752 35.7639 1.78138 36.564 2.20328V5.79528C35.7843 5.24616 34.9984 4.83549 34.2123 4.56677C33.4227 4.29408 32.6361 4.15983 31.8466 4.15983C30.4226 4.15983 29.2985 4.578 28.4811 5.41806C27.6642 6.25811 27.254 7.41179 27.254 8.88681C27.254 10.3169 27.6436 11.4594 28.4263 12.3104C29.2053 13.1655 30.257 13.5911 31.5779 13.5911C32.4258 13.5911 33.2776 13.4307 34.1329 13.1058C34.9878 12.7812 35.8396 12.2994 36.688 11.6647V15.2417ZM52.0427 1.225V9.98436C52.0427 12.1275 51.4565 13.7964 50.2808 14.995C49.1048 16.1938 47.4636 16.7949 45.3565 16.7949C43.2536 16.7949 41.6152 16.1938 40.4394 14.995C39.2639 13.7964 38.6777 12.1275 38.6777 9.98436V1.225H42.2362V9.83141C42.2362 11.0487 42.5049 11.9783 43.0433 12.6241C43.5807 13.27 44.3637 13.5911 45.3844 13.5911C46.4018 13.5911 47.1773 13.27 47.7087 12.6278C48.2391 11.9896 48.5047 11.056 48.5047 9.83141V1.225H52.0427ZM58.2908 13.7258H60.3392C61.2566 13.7258 61.9079 13.5874 62.2978 13.3114C62.6871 13.0312 62.884 12.5721 62.884 11.9334C62.884 11.2763 62.677 10.7907 62.2634 10.4771C61.8495 10.1635 61.2013 10.007 60.3186 10.007H58.2908V13.7258ZM60.1186 7.27357C60.7565 7.27357 61.2321 7.14308 61.5462 6.87787C61.8601 6.61664 62.0151 6.22093 62.0151 5.68701C62.0151 5.09695 61.8565 4.65611 61.5393 4.36892C61.2256 4.08126 60.7495 3.93555 60.1186 3.93555H58.2908V7.27357H60.1186ZM54.7324 16.5259V1.225H59.946C61.8048 1.225 63.2084 1.55336 64.1529 2.21451C65.1016 2.87519 65.5736 3.8537 65.5736 5.15285C65.5736 5.82873 65.4149 6.42252 65.0946 6.93399C64.7735 7.44547 64.3046 7.84889 63.6944 8.14731C64.6805 8.48338 65.4186 8.98013 65.9012 9.64081C66.3871 10.3017 66.6287 11.1345 66.6287 12.1388C66.6287 13.6063 66.1631 14.7038 65.2357 15.4319C64.3084 16.1599 62.9118 16.5259 61.0461 16.5259H54.7324ZM72.8321 10.9252H77.0046L75.0252 5.10069L72.8321 10.9252ZM66.9149 16.5259L73.0772 1.225H77.1565L82.6598 16.5259H78.9112L77.9008 13.5464H71.8113L70.6803 16.5259H66.9149ZM85.9387 16.5259V4.07027H81.2631V1.225H94.3385V4.07027H89.6628V16.5259H85.9387ZM98.8076 8.88681C98.8076 10.2496 99.1869 11.3733 99.942 12.2506C100.701 13.1283 101.666 13.5686 102.839 13.5686C104.014 13.5686 104.983 13.1283 105.742 12.2506C106.497 11.3733 106.876 10.2496 106.876 8.88681C106.876 7.51633 106.497 6.38862 105.742 5.50763C104.983 4.62267 104.014 4.18205 102.839 4.18205C101.666 4.18205 100.701 4.62267 99.942 5.50763C99.1869 6.38862 98.8076 7.51633 98.8076 8.88681ZM95.166 8.88681C95.166 7.74809 95.3523 6.69849 95.7212 5.73168C96.0935 4.76463 96.6453 3.90211 97.38 3.14414C98.0938 2.4161 98.9043 1.87072 99.8108 1.51618C100.718 1.15765 101.725 0.978505 102.839 0.978505C103.962 0.978505 104.98 1.15765 105.89 1.51991C106.801 1.88218 107.611 2.42359 108.324 3.14414C109.052 3.90211 109.604 4.76463 109.976 5.73168C110.352 6.69849 110.538 7.74809 110.538 8.88681C110.538 10.018 110.352 11.0634 109.976 12.0305C109.604 12.9978 109.052 13.8526 108.324 14.5956C107.604 15.3236 106.787 15.8727 105.873 16.242C104.962 16.612 103.949 16.7949 102.839 16.7949C101.732 16.7949 100.728 16.612 99.8209 16.2495C98.9146 15.884 98.1008 15.3311 97.38 14.5956C96.6523 13.8526 96.1005 12.9978 95.7282 12.0305C95.3523 11.0634 95.166 10.018 95.166 8.88681ZM117.928 7.49762C118.583 7.49762 119.069 7.34841 119.39 7.0535C119.71 6.75835 119.869 6.3105 119.869 5.70548C119.869 5.1304 119.703 4.69001 119.369 4.38738C119.035 4.08499 118.555 3.93555 117.928 3.93555H116.228V7.49762H117.928ZM112.69 16.5259V1.225H117.907C119.825 1.225 121.242 1.58726 122.159 2.30782C123.072 3.02837 123.531 4.14861 123.531 5.66431C123.531 6.50835 123.328 7.23265 122.924 7.8337C122.521 8.43474 121.904 8.9427 121.069 9.35711C121.421 9.49533 121.735 9.72687 122.014 10.0515C122.293 10.3763 122.535 10.787 122.745 11.2837L125 16.5259H121.01L119.21 12.1163C118.921 11.4142 118.59 10.9329 118.221 10.6715C117.849 10.4063 117.324 10.2755 116.642 10.2755C116.59 10.2755 116.518 10.2793 116.431 10.2867C116.342 10.2942 116.276 10.298 116.228 10.298V16.5259H112.69Z" fill="#191F82"/>
</svg>
