<svg width="40" height="41" viewBox="0 0 40 41" fill="none" xmlns="http://www.w3.org/2000/svg">
<path d="M36.25 0.145508H3.75C1.6875 0.145508 0 1.83301 0 3.89551V36.3955C0 38.458 1.6875 40.1455 3.75 40.1455H36.25C38.3125 40.1455 40 38.458 40 36.3955V3.89551C40 1.83301 38.3125 0.145508 36.25 0.145508ZM32.3984 28.1455L28.7422 28.2002C28.7422 28.2002 27.9531 28.3564 26.9219 27.6455C25.5547 26.708 24.2656 24.2627 23.2578 24.583C22.2422 24.9033 22.2734 27.0986 22.2734 27.0986C22.2734 27.0986 22.2812 27.5674 22.0469 27.8174C21.7969 28.0908 21.2969 28.1455 21.2969 28.1455H19.6641C19.6641 28.1455 16.0547 28.3643 12.875 25.0518C9.40625 21.4424 6.34375 14.2783 6.34375 14.2783C6.34375 14.2783 6.16406 13.8096 6.35938 13.583C6.57812 13.3252 7.16406 13.3096 7.16406 13.3096L11.0781 13.2861C11.0781 13.2861 11.4453 13.3486 11.7109 13.5439C11.9297 13.7002 12.0469 14.0049 12.0469 14.0049C12.0469 14.0049 12.6797 15.6064 13.5156 17.0518C15.1484 19.8721 15.9141 20.4893 16.4688 20.1924C17.2734 19.7549 17.0312 16.2002 17.0312 16.2002C17.0312 16.2002 17.0469 14.9111 16.625 14.3408C16.2969 13.8955 15.6797 13.7627 15.4141 13.7314C15.1953 13.7002 15.5547 13.1924 16.0234 12.958C16.7266 12.6143 17.9688 12.5908 19.4375 12.6064C20.5781 12.6143 20.9141 12.6924 21.3594 12.7939C22.7109 13.1221 22.25 14.3799 22.25 17.3955C22.25 18.3643 22.0781 19.7236 22.7734 20.1689C23.0703 20.3643 23.8047 20.2002 25.6406 17.083C26.5078 15.6064 27.1641 13.8721 27.1641 13.8721C27.1641 13.8721 27.3047 13.5596 27.5234 13.4268C27.75 13.2939 28.0547 13.333 28.0547 13.333L32.1719 13.3096C32.1719 13.3096 33.4062 13.1611 33.6094 13.7236C33.8203 14.3096 33.1484 15.6768 31.4688 17.9189C28.7109 21.5986 28.3984 21.2549 30.6953 23.3799C32.8828 25.4111 33.3359 26.4033 33.4141 26.5283C34.3047 28.0283 32.3984 28.1455 32.3984 28.1455Z" fill="#191F82"/>
</svg>
